/vscmnt/brussel_pixiu_data/_data_brussel/112/vsc11236/PredSimResults/SUBJ07_Falisse2022/weightedWalking/worker_01.mot
version=1
nRows=4
nColumns=124
inDegrees=yes
endheader
                time	         pelvis_tilt	         pelvis_list	     pelvis_rotation	           pelvis_tx	           pelvis_ty	           pelvis_tz	       hip_flexion_r	     hip_adduction_r	      hip_rotation_r	        knee_angle_r	       ankle_angle_r	    subtalar_angle_r	         mtp_angle_r	       hip_flexion_l	     hip_adduction_l	      hip_rotation_l	        knee_angle_l	       ankle_angle_l	    subtalar_angle_l	         mtp_angle_l	    lumbar_extension	      lumbar_bending	     lumbar_rotation	          arm_flex_r	           arm_add_r	           arm_rot_r	        elbow_flex_r	          arm_flex_l	           arm_add_l	           arm_rot_l	        elbow_flex_l	glut_med1_r/activation	glut_med2_r/activation	glut_med3_r/activation	glut_min1_r/activation	glut_min2_r/activation	glut_min3_r/activation	semimem_r/activation	semiten_r/activation	bifemlh_r/activation	bifemsh_r/activation	    sar_r/activation	add_long_r/activation	add_brev_r/activation	add_mag1_r/activation	add_mag2_r/activation	add_mag3_r/activation	    tfl_r/activation	   pect_r/activation	   grac_r/activation	glut_max1_r/activation	glut_max2_r/activation	glut_max3_r/activation	iliacus_r/activation	  psoas_r/activation	quad_fem_r/activation	    gem_r/activation	   peri_r/activation	rect_fem_r/activation	vas_med_r/activation	vas_int_r/activation	vas_lat_r/activation	med_gas_r/activation	lat_gas_r/activation	 soleus_r/activation	tib_post_r/activation	flex_dig_r/activation	flex_hal_r/activation	tib_ant_r/activation	per_brev_r/activation	per_long_r/activation	per_tert_r/activation	ext_dig_r/activation	ext_hal_r/activation	glut_med1_l/activation	glut_med2_l/activation	glut_med3_l/activation	glut_min1_l/activation	glut_min2_l/activation	glut_min3_l/activation	semimem_l/activation	semiten_l/activation	bifemlh_l/activation	bifemsh_l/activation	    sar_l/activation	add_long_l/activation	add_brev_l/activation	add_mag1_l/activation	add_mag2_l/activation	add_mag3_l/activation	    tfl_l/activation	   pect_l/activation	   grac_l/activation	glut_max1_l/activation	glut_max2_l/activation	glut_max3_l/activation	iliacus_l/activation	  psoas_l/activation	quad_fem_l/activation	    gem_l/activation	   peri_l/activation	rect_fem_l/activation	vas_med_l/activation	vas_int_l/activation	vas_lat_l/activation	med_gas_l/activation	lat_gas_l/activation	 soleus_l/activation	tib_post_l/activation	flex_dig_l/activation	flex_hal_l/activation	tib_ant_l/activation	per_brev_l/activation	per_long_l/activation	per_tert_l/activation	ext_dig_l/activation	ext_hal_l/activation	 ercspn_r/activation	 ercspn_l/activation	 intobl_r/activation	 intobl_l/activation	 extobl_r/activation	 extobl_l/activation	
          1.10395572	         -9.29220303	         -2.05176403	          3.62282915	          1.40202376	          0.84318296	         -0.00527505	         36.20421408	          2.83898256	          0.69628640	        -10.02885447	         15.29408210	         -6.22896441	          0.23253881	        -12.17852300	          0.33775390	          9.13335552	         -7.89578336	          2.19798226	         -1.16587402	         32.70587077	         -2.01045338	          0.51018327	         -1.63275345	        -19.32806775	        -13.86978588	         12.57270464	         19.22758303	         24.01947293	        -13.47226935	         19.36694033	         69.99303629	          0.01003660	          0.01121069	          0.01000065	          0.01000343	          0.01000082	          0.01004401	          0.15475484	          0.03909588	          0.03898542	          0.01000056	          0.01403151	          0.03287754	          0.16448122	          0.19617161	          0.12273101	          0.05478657	          0.01000235	          0.01666119	          0.08606017	          0.05128475	          0.01997645	          0.04780365	          0.01659612	          0.01659750	          0.22181868	          0.02562930	          0.02073061	          0.01659690	          0.08584218	          0.08506730	          0.07320850	          0.01000195	          0.01000063	          0.01177510	          0.02326704	          0.01660226	          0.01687744	          0.32284728	          0.25989670	          0.18338870	          0.12468234	          0.37325680	          0.17625730	          0.08377995	          0.06736452	          0.06708480	          0.12667715	          0.10684735	          0.09863229	          0.01680720	          0.01183325	          0.01404182	          0.03082623	          0.06160204	          0.06425740	          0.05824927	          0.07063449	          0.02680518	          0.01015022	          0.18752673	          0.04793200	          0.01804280	          0.01961429	          0.01661431	          0.01664695	          0.23417288	          0.35558533	          0.01965929	          0.02123620	          0.09841387	          0.14098862	          0.01006311	          0.01014198	          0.01184004	          0.20438383	          0.28106501	          0.29111573	          0.29578893	          0.36426771	          0.38451190	          0.01000022	          0.01000007	          0.01000004	          0.01000021	          0.01000009	          0.01000077	          0.04117090	          0.01930752	          0.01469681	          0.01659756	          0.07513924	          0.01000037	
          1.11499528	         -9.27780554	         -2.33726149	          3.91293673	          1.41872904	          0.84152258	         -0.00506032	         35.44084077	          3.20599863	          0.95531798	        -10.58661123	         14.56132654	         -6.58836912	          0.21878104	        -11.95194075	          0.03241159	          8.69645997	        -10.31826056	          1.92399934	         -0.59505853	         33.69495644	         -1.90067428	          1.00489932	         -1.67034356	        -20.39304428	        -13.87158570	         12.65824364	         18.96553162	         23.73084062	        -13.49342190	         19.31278851	         72.03605670	          0.14541804	          0.19045073	          0.01000033	          0.01000099	          0.01000060	          0.23012163	          0.13070593	          0.03302141	          0.05222446	          0.03139931	          0.01185141	          0.02776852	          0.13892091	          0.16568662	          0.10365878	          0.04861611	          0.01000131	          0.01407606	          0.07269937	          0.15771364	          0.01784644	          0.04040646	          0.01401718	          0.01401831	          0.28488477	          0.02782219	          0.18042565	          0.01401776	          0.07250236	          0.07184790	          0.06183195	          0.01659742	          0.01548417	          0.01432686	          0.01965135	          0.01402234	          0.01425475	          0.37278749	          0.25925244	          0.15489025	          0.22648236	          0.48246598	          0.14886726	          0.17645055	          0.05689609	          0.05665983	          0.10699344	          0.09024341	          0.08330487	          0.01419651	          0.01000108	          0.01186087	          0.02603585	          0.05202915	          0.07802047	          0.07999947	          0.05965867	          0.02264642	          0.01531373	          0.15838518	          0.04050464	          0.01523944	          0.01656703	          0.01403295	          0.01406033	          0.19778241	          0.30032735	          0.01660427	          0.01793623	          0.08312037	          0.11907899	          0.01000084	          0.01000086	          0.01000095	          0.17262256	          0.23738749	          0.27426003	          0.24982966	          0.30766179	          0.32480363	          0.01000009	          0.01000037	          0.01000035	          0.01000032	          0.01000011	          0.01000049	          0.04265125	          0.03391990	          0.01838191	          0.01401830	          0.06346260	          0.01000005	
          1.12603483	         -9.26236138	         -2.61345106	          4.18198985	          1.43542108	          0.83991876	         -0.00480876	         34.62717090	          3.55017930	          1.22455259	        -11.06715095	         13.81912614	         -6.94586054	          0.22133474	        -11.58464392	         -0.26873271	          8.25968602	        -12.96799817	          1.59682872	         -0.02174187	         34.33656174	         -1.80010312	          1.49547509	         -1.70013183	        -21.28244675	        -13.85953478	         12.96820298	         18.53421176	         23.35851777	        -13.51625236	         19.23796526	         73.91294096	          0.21582728	          0.29121455	          0.28899635	          0.08570935	          0.19560586	          0.19436505	          0.11039422	          0.05809814	          0.04410900	          0.02652012	          0.01000991	          0.02345337	          0.11733265	          0.13993914	          0.08755121	          0.06416992	          0.01000068	          0.01188975	          0.07120011	          0.20030352	          0.11058742	          0.07191752	          0.01183895	          0.01183990	          0.24061575	          0.02350484	          0.15238814	          0.01183943	          0.06123563	          0.06068288	          0.05222339	          0.01401819	          0.01307795	          0.01210047	          0.01659754	          0.01184332	          0.01203960	          0.47935308	          0.32411349	          0.17485302	          0.49098750	          0.52185030	          0.32147937	          0.16030322	          0.04805446	          0.04785490	          0.15881414	          0.07621972	          0.07035933	          0.03224443	          0.01062320	          0.01002123	          0.02198990	          0.04394389	          0.06605967	          0.08018407	          0.05038855	          0.01922341	          0.03991487	          0.13377238	          0.03421395	          0.01287162	          0.01399324	          0.01185268	          0.01187569	          0.16704702	          0.25365649	          0.01402400	          0.01514907	          0.07020348	          0.10057439	          0.02264938	          0.02317190	          0.01909585	          0.14579700	          0.20049746	          0.24857652	          0.23797986	          0.25985216	          0.27444450	          0.01000018	          0.01000111	          0.01677631	          0.01000080	          0.01000024	          0.01000103	          0.07891437	          0.05883977	          0.01659826	          0.01183987	          0.05360051	          0.01000005	
          1.13707439	         -9.24716997	         -2.87558885	          4.42924596	          1.45192726	          0.83860109	         -0.00450938	         33.86207766	          3.90180260	          1.49363523	        -11.57531808	         12.94741081	         -7.28999628	          0.21598754	        -11.06186146	         -0.56567189	          7.83235417	        -15.82683291	          1.19011473	          0.55488985	         34.47485008	         -1.71657065	          1.97600640	         -1.72390865	        -21.95304290	        -13.82437252	         13.45318059	         17.93469983	         22.93255169	        -13.53160106	         19.15997261	         75.53336500	          0.27785879	          0.35627643	          0.36760339	          0.11412527	          0.16521324	          0.19788675	          0.09323896	          0.05918995	          0.04329795	          0.02239897	          0.01000050	          0.01980883	          0.09909927	          0.11819368	          0.10741291	          0.08952606	          0.01000058	          0.01004614	          0.06020905	          0.23995700	          0.15042076	          0.10137838	          0.01000010	          0.01000016	          0.21671441	          0.01985315	          0.12870766	          0.01000014	          0.12435558	          0.12464203	          0.10934070	          0.01183978	          0.01104568	          0.01022006	          0.01401830	          0.01000306	          0.01016878	          0.54401914	          0.32142603	          0.16988103	          0.53811010	          0.55551898	          0.32793918	          0.13539423	          0.04058681	          0.04041825	          0.16413359	          0.06437532	          0.05942553	          0.02724371	          0.01000526	          0.01000153	          0.01857269	          0.03711508	          0.05579484	          0.15001740	          0.04255893	          0.01625660	          0.03861687	          0.11298436	          0.02894194	          0.01087190	          0.01181965	          0.01001131	          0.01003057	          0.14108791	          0.21423827	          0.01184470	          0.01279504	          0.05929387	          0.08494520	          0.03261503	          0.03261454	          0.03261020	          0.12314013	          0.16934015	          0.20994777	          0.20471513	          0.21947153	          0.23179639	          0.01000009	          0.01004342	          0.02741725	          0.01000053	          0.01000014	          0.01000053	          0.09223764	          0.08814140	          0.01401895	          0.01000003	          0.04527099	          0.01000003	
